<svg width="20" height="20" viewBox="0 0 20 20" fill="none" xmlns="http://www.w3.org/2000/svg">
    <path d="M10 19V1M10 19C12.4392 19 14.6518 18.0297 16.2727 16.4539M10 19C7.5608 19 5.34824 18.0297 3.72727 16.4539M10 1C7.5608 1 5.34824 1.97035 3.72727 3.54609M10 1C12.4392 1 14.6518 1.97035 16.2727 3.54609M3.72727 3.54609C5.40948 5.18136 6.45455 7.46864 6.45455 10C6.45455 12.5314 5.40948 14.8186 3.72727 16.4539M3.72727 3.54609C2.04506 5.18136 1 7.46864 1 10C1 12.5314 2.04506 14.8186 3.72727 16.4539M16.2727 3.54609C14.5905 5.18136 13.5455 7.46864 13.5455 10C13.5455 12.5314 14.5905 14.8186 16.2727 16.4539M16.2727 3.54609C17.9549 5.18136 19 7.46864 19 10C19 12.5314 17.9549 14.8186 16.2727 16.4539" stroke="white" stroke-width="2"/>
</svg>