<svg width="72" height="78" viewBox="0 0 72 78" fill="none" xmlns="http://www.w3.org/2000/svg">
<path d="M15.2876 43.1385V43.8927C15.2876 45.5495 16.6307 46.8927 18.2876 46.8927H19.43M15.2876 43.1385V42.3843C15.2876 40.7275 16.6307 39.3843 18.2876 39.3843H53.7122C55.3691 39.3843 56.7122 40.7275 56.7122 42.3843V43.1385M15.2876 43.1385H9.76429H8.84374H5.3999C3.74305 43.1385 2.3999 41.7954 2.3999 40.1385V5.19995C2.3999 3.54309 3.74305 2.19995 5.3999 2.19995H66.5999C68.2568 2.19995 69.5999 3.5431 69.5999 5.19995V40.1385C69.5999 41.7954 68.2568 43.1385 66.5999 43.1385H63.1561H62.2355H56.7122M56.7122 43.1385V43.8927C56.7122 45.5495 55.3691 46.8927 53.7122 46.8927H52.1095M19.43 46.8927H30.4766M19.43 46.8927C19.43 46.8927 20.7349 49.5125 22.079 54.0256M24.9533 75.8C25.0212 73.3085 24.9489 70.9233 24.7764 68.667M52.1095 46.8927H41.0629M52.1095 46.8927C52.1095 46.8927 50.905 49.5125 49.621 54.0256M46.5862 75.8C46.5862 73.3085 46.7063 70.9233 46.9111 68.667M30.4766 46.8927C30.4766 46.8927 32.3177 58.9061 32.3177 75.8M30.4766 46.8927H41.0629M41.0629 46.8927C41.0629 46.8927 39.2218 58.9061 39.2218 75.8M22.079 54.0256H49.621M22.079 54.0256C22.6528 55.952 23.2336 58.2234 23.7233 60.7832M49.621 54.0256C49.0729 55.952 48.5104 58.2234 48.0208 60.7832M23.7233 60.7832H48.0208M23.7233 60.7832C24.1807 63.1747 24.5585 65.818 24.7764 68.667M48.0208 60.7832C47.5634 63.1747 47.1698 65.818 46.9111 68.667M24.7764 68.667H46.9111M52.5344 37.2444L36.9344 10.2245M52.5344 37.2444C57.0967 34.6104 59.8252 30.0197 60.2718 25.1443M52.5344 37.2444C47.833 39.9588 42.3061 39.9479 37.7828 37.7018M36.9344 10.2245C41.3378 7.68214 46.4655 7.53059 50.8143 9.36706M36.9344 10.2245C36.1258 10.6913 35.3749 11.2195 34.684 11.8M50.8143 9.36706C48.5251 12.4559 48.1454 16.7322 50.1903 20.2739C52.2929 23.9159 56.35 25.726 60.2718 25.1443M50.8143 9.36706C53.8344 10.6424 56.4789 12.8765 58.2444 15.9344C59.9181 18.8335 60.5556 22.0464 60.2718 25.1443M37.7828 37.7018C39.7749 34.6592 40.0204 30.6317 38.0778 27.267C36.1899 23.997 32.7264 22.2038 29.1999 22.2927M37.7828 37.7018C35.4806 36.5587 33.4384 34.8365 31.8974 32.6M29.1999 22.2927C28.9088 25.4004 29.5449 28.6255 31.2244 31.5344C31.4364 31.9016 31.661 32.2568 31.8974 32.6M29.1999 22.2927C29.5746 18.2929 31.4851 14.4874 34.684 11.8M34.684 11.8H18.9999C17.343 11.8 15.9999 13.1431 15.9999 14.8V29.6C15.9999 31.2568 17.3431 32.6 18.9999 32.6H31.8974" stroke="#1E337D" stroke-width="3" stroke-linecap="round" stroke-linejoin="round"/>
</svg>
