<svg xmlns="http://www.w3.org/2000/svg" width="24" height="24" viewBox="0 0 24 24"><g style="fill:#464646;"><path d="M13.416 12.001l10.292-10.293c.391-.389.391-1.022 0-1.414-.391-.391-1.024-.391-1.414 0l-10.293 10.293-10.293-10.293c-.391-.391-1.024-.391-1.414 0-.391.392-.391 1.024 0 1.414l10.292 10.293-10.292 10.293c-.391.392-.391 1.024 0 1.414.195.195.451.293.707.293.256 0 .512-.098.707-.293l10.293-10.293 10.293 10.293c.195.195.451.293.707.293.256 0 .512-.098.707-.293.391-.39.391-1.022 0-1.414l-10.292-10.293z"/></g></svg>