<svg width="61" height="80" viewBox="0 0 61 80" fill="none" xmlns="http://www.w3.org/2000/svg">
<path d="M35.8001 35.9999H25.4001M35.8001 35.9999C37.1218 38.279 37.0974 39.7543 35.9599 42.432C35.8649 42.6558 35.6433 42.7999 35.4001 42.7999M35.8001 35.9999C46.9184 30.7187 50.3107 16.5526 51.3457 8.3999M25.4001 35.9999C24.5413 38.9419 24.6458 40.3959 25.4001 42.7999M25.4001 35.9999C23.1155 35.0289 21.1571 33.6502 19.4783 31.9999M25.4001 42.7999L23.0972 45.1029C21.5853 46.6148 22.6561 49.1999 24.7942 49.1999H36.006C38.1442 49.1999 39.215 46.6148 37.7031 45.1028L35.4001 42.7999M25.4001 42.7999H35.4001M9.83547 8.3999C9.66446 6.99541 9.56063 5.76853 9.49758 4.79642C9.41179 3.47372 10.4746 2.3999 11.8001 2.3999H49.4001C50.7256 2.3999 51.7879 3.47376 51.6983 4.79621C51.6325 5.76789 51.5241 6.99455 51.3457 8.3999M9.83547 8.3999H1.82627C1.6129 8.3999 1.45903 8.60437 1.51811 8.80939L5.07751 21.1626C6.92668 27.5803 12.7995 31.9999 19.4783 31.9999M9.83547 8.3999C10.6409 15.0147 12.9363 25.569 19.4783 31.9999M51.3457 8.3999H58.5892C58.7963 8.3999 58.9468 8.59663 58.8926 8.79646L55.4268 21.5764C53.7584 27.7286 48.1746 31.9999 41.8001 31.9999M45.8001 7.1999C44.7334 13.1999 41.2401 25.9999 35.8001 29.1999M20.8482 9.65253L21.797 11.2958M24.8047 16.5054L25.7534 18.1487M27.5489 11.448L25.9056 12.3968M20.6961 15.4045L19.0527 16.3532M16.6001 77.5999H44.6001C45.9256 77.5999 47.0001 76.5254 47.0001 75.1999V73.5999C47.0001 72.2744 45.9256 71.1999 44.6001 71.1999H16.6001C15.2746 71.1999 14.2001 72.2744 14.2001 73.5999V75.1999C14.2001 76.5254 15.2746 77.5999 16.6001 77.5999ZM19.8001 71.1999H41.4001C42.7256 71.1999 43.8001 70.1254 43.8001 68.7999V51.9999C43.8001 50.6744 42.7256 49.5999 41.4001 49.5999H19.8001C18.4746 49.5999 17.4001 50.6744 17.4001 51.9999V68.7999C17.4001 70.1254 18.4746 71.1999 19.8001 71.1999ZM25.4001 64.7999H35.8001C37.1256 64.7999 38.2001 63.7254 38.2001 62.3999V58.3999C38.2001 57.0744 37.1256 55.9999 35.8001 55.9999H25.4001C24.0746 55.9999 23.0001 57.0744 23.0001 58.3999V62.3999C23.0001 63.7254 24.0746 64.7999 25.4001 64.7999Z" stroke="#1E337D" stroke-width="3" stroke-linecap="round" stroke-linejoin="round"/>
</svg>
