<svg version="1" xmlns="http://www.w3.org/2000/svg" width="24" height="24" viewBox="0 0 24 24"><g style="fill:#f85c78;"><path d="M18 6h-12c-1.103 0-2 .897-2 2v8c0 1.103.897 2 2 2h12c1.103 0 2-.897 2-2v-8c0-1.103-.897-2-2-2zm1 10c0 .551-.449 1-1 1h-12c-.551 0-1-.449-1-1v-8c0-.551.449-1 1-1h12c.551 0 1 .449 1 1v8zM17.887 8.184c-.175-.214-.49-.245-.704-.071l-5.183 4.241-5.184-4.241c-.214-.174-.528-.143-.703.071-.175.213-.143.528.071.703l3.618 2.96-3.566 2.229c-.234.146-.305.455-.159.689.094.152.257.235.424.235.09 0 .182-.024.265-.076l3.853-2.408 1.065.872c.091.074.204.112.316.112s.225-.038.316-.113l1.065-.872 3.853 2.408c.083.053.175.077.266.077.167 0 .33-.083.424-.235.146-.234.075-.543-.159-.689l-3.566-2.229 3.618-2.96c.213-.175.245-.49.07-.703zM12 0c-6.617 0-12 5.383-12 12s5.383 12 12 12 12-5.383 12-12-5.383-12-12-12zm0 23c-6.065 0-11-4.935-11-11s4.935-11 11-11 11 4.935 11 11-4.935 11-11 11z"/></g></svg>
