<?xml version="1.0" encoding="UTF-8" ?>
<!DOCTYPE svg PUBLIC "-//W3C//DTD SVG 1.1//EN" "http://www.w3.org/Graphics/SVG/1.1/DTD/svg11.dtd">
<svg width="381pt" height="129pt" viewBox="0 0 381 129" version="1.1" xmlns="http://www.w3.org/2000/svg">

<!-- внешний мяч -->
<path fill="#f32549" d=" M 334.14 2.11 C 339.16 0.31 344.60 0.93 349.83 0.88 C 366.86 2.58 381.12 18.80 380.26 35.98 C 381.06 53.17 366.89 69.07 349.96 71.08 C 342.02 72.38 334.00 70.36 326.95 66.73 C 320.88 67.97 315.30 71.21 309.31 72.92 C 310.84 67.25 312.56 61.64 314.12 55.98 C 314.82 54.48 313.73 53.06 313.22 51.72 C 308.16 41.96 308.28 29.83 313.20 20.05 C 317.42 11.60 325.12 4.95 334.14 2.11 Z
  M 337.38 8.56 C 350.68 4.58 365.98 12.02 371.13 24.88 C 377.28 38.43 370.43 55.92 356.76 61.73 C 344.11 67.86 327.53 62.65 320.59 50.45 C 313.82 39.47 315.92 24.11 325.41 15.37 C 328.76 12.15 332.93 9.84 337.38 8.56 Z" fill-rule="evenodd"/>

<!-- внутреений мяч -->
<path fill="#f32549" d=" M 342.28 12.39 C 350.36 11.31 358.81 14.89 363.71 21.38 C 368.81 27.87 369.94 37.15 366.65 44.70 C 362.87 53.81 352.90 59.83 343.07 58.76 C 335.80 58.16 328.98 53.88 325.24 47.62 C 321.13 40.98 320.75 32.20 324.28 25.23 C 327.62 18.28 334.64 13.34 342.28 12.39 Z
M 345.60 15.62 C 351.28 16.73 351.26 23.30 351.24 27.85 C 351.91 27.95 353.26 28.14 353.94 28.23 C 354.72 25.43 356.19 20.59 360.04 21.86 C 360.32 24.46 357.89 26.39 356.90 28.65 C 360.16 29.96 365.44 30.56 365.04 35.26 C 362.51 34.52 360.10 33.48 357.65 32.55 C 358.89 36.28 361.65 39.34 362.69 43.13 C 362.90 44.42 362.64 47.17 360.76 46.69 C 358.48 41.49 355.12 36.74 353.99 31.10 C 353.28 31.01 351.85 30.83 351.14 30.74 C 350.86 37.49 350.10 44.22 348.75 50.84 C 348.32 52.54 347.96 54.35 346.84 55.75 C 345.39 56.87 343.03 54.56 343.99 53.06 C 346.54 45.68 348.72 37.97 348.35 30.08 C 347.51 30.10 345.83 30.15 344.99 30.18 C 342.54 38.29 336.67 45.35 329.52 49.76 C 329.71 48.10 329.52 46.11 330.96 44.92 C 335.08 40.62 339.42 36.21 341.44 30.47 C 335.86 30.76 330.93 33.44 325.86 35.47 C 325.99 34.66 326.26 33.06 326.39 32.25 C 330.99 28.99 336.76 28.35 342.16 27.37 C 340.55 23.00 335.84 21.97 331.74 21.57 C 333.71 18.50 338.08 19.49 340.66 21.20 C 343.09 22.63 344.23 25.28 345.27 27.76 C 346.34 27.65 347.41 27.53 348.49 27.41 C 347.96 23.38 346.72 19.51 345.60 15.62 Z" fill-rule="evenodd"/>

<!-- "d" -->
<path fill="#f32549" d=" M 115.13 58.40 C 118.18 58.46 121.24 58.49 124.29 58.60 C 124.15 74.05 124.39 89.50 124.18 104.94 C 124.27 108.06 123.12 111.77 119.69 112.57 C 113.85 113.52 107.88 112.75 101.99 113.03 C 98.64 113.08 94.07 113.10 92.56 109.42 C 91.23 105.07 91.89 100.44 91.75 95.96 C 91.91 90.28 91.33 84.54 92.16 78.89 C 92.52 76.11 95.21 74.27 97.87 74.13 C 103.57 73.78 109.29 74.10 114.99 74.00 C 115.04 68.80 114.88 63.60 115.13 58.40 Z
  M 101.07 81.90 C 105.71 81.64 110.36 81.75 115.00 81.77 C 114.97 89.55 115.08 97.33 114.93 105.11 C 110.32 105.34 105.70 105.33 101.09 105.12 C 100.94 97.38 100.96 89.64 101.07 81.90 Z" fill-rule="evenodd" />

<!-- "F" -->
<path fill="#f32549" d=" M 2.68 60.68 C 4.42 58.51 7.44 58.51 9.98 58.48 C 17.14 58.52 24.31 58.48 31.47 58.52 C 31.50 61.35 31.50 64.18 31.46 67.01 C 25.02 67.12 18.56 66.74 12.13 67.17 C 11.86 67.41 11.33 67.90 11.06 68.15 C 10.37 72.39 10.87 76.72 10.78 81.00 C 17.67 81.00 24.55 81.02 31.44 80.98 C 31.50 83.81 31.51 86.64 31.48 89.47 C 24.66 89.48 17.84 89.60 11.01 89.39 C 10.45 97.21 10.82 105.07 10.81 112.91 C 7.54 113.02 4.27 113.02 1.00 112.99 C 0.98 98.00 0.93 83.00 0.97 68.01 C 1.07 65.52 0.90 62.67 2.68 60.68 Z" />

<!-- точка над "i" -->
<path fill="#f32549" d=" M 38.39 59.43 C 41.25 57.06 46.30 59.13 46.29 62.97 C 46.79 66.61 42.42 69.53 39.23 67.75 C 36.05 66.29 35.55 61.50 38.39 59.43 Z" />

<!-- "S" -->
<path fill="#f32549" d=" M 136.39 62.23 C 137.43 59.12 141.09 58.39 143.99 58.49 C 152.66 58.52 161.34 58.46 170.01 58.55 C 170.00 61.36 170.00 64.18 170.00 67.00 C 162.07 67.25 154.06 66.50 146.17 67.37 C 144.81 71.29 145.59 75.83 145.68 79.97 C 145.99 80.19 146.60 80.63 146.91 80.85 C 152.99 81.40 159.12 80.54 165.19 81.26 C 168.15 81.50 170.32 84.18 170.55 87.05 C 171.00 92.03 170.63 97.04 170.77 102.03 C 170.70 105.05 171.03 108.53 168.89 110.97 C 166.84 113.06 163.68 112.93 160.98 113.02 C 152.83 113.00 144.68 112.99 136.53 113.01 C 136.50 110.18 136.50 107.36 136.51 104.53 C 144.57 104.05 152.80 105.38 160.75 103.82 C 161.12 99.27 161.13 94.69 160.71 90.14 C 153.95 88.50 146.89 90.36 140.10 89.09 C 135.66 87.97 135.56 82.71 135.51 79.01 C 135.70 73.43 134.86 67.67 136.39 62.23 Z" />

<!-- "t" -->
<path fill="#f32549" d=" M 282.76 62.99 C 285.78 62.98 288.80 62.99 291.82 63.09 C 291.72 66.72 291.73 70.36 291.77 74.00 C 295.66 74.00 299.55 74.01 303.44 73.98 C 303.22 76.47 304.22 79.51 302.96 81.66 C 299.23 81.91 295.50 81.68 291.77 81.76 C 291.77 89.54 291.64 97.32 291.85 105.10 C 295.77 105.31 299.71 105.15 303.62 105.46 C 303.52 107.97 303.47 110.49 303.44 113.01 C 298.22 112.86 292.96 113.32 287.76 112.75 C 284.52 112.39 282.46 109.09 282.76 105.98 C 282.73 91.65 282.74 77.32 282.76 62.99 Z" />

<!-- палка от "i" -->
<path fill="#f32549" d=" M 37.01 74.00 C 40.00 74.00 43.00 74.00 46.00 74.01 C 46.00 87.00 46.00 99.99 46.00 112.99 C 43.00 113.00 40.00 113.00 37.00 113.00 C 37.00 100.00 36.99 87.00 37.01 74.00 Z" />

<!-- "n" -->
<path fill="#f32549" d=" M 57.40 74.56 C 61.16 73.53 65.13 74.14 68.99 74.00 C 72.87 74.14 76.84 73.56 80.65 74.49 C 83.42 75.28 84.88 78.20 84.74 80.93 C 84.82 91.59 84.65 102.26 84.81 112.92 C 81.80 113.00 78.79 113.02 75.78 113.01 C 75.67 102.69 75.83 92.36 75.69 82.03 C 71.35 81.56 66.98 81.73 62.63 81.83 C 62.40 92.17 62.46 102.52 62.60 112.86 C 59.47 113.04 56.34 113.04 53.20 112.94 C 53.35 102.64 53.15 92.34 53.30 82.04 C 53.32 79.08 54.14 75.47 57.40 74.56 Z" />

<!-- "p" -->
<path fill="#f32549" d=" M 182.29 74.44 C 186.80 73.53 191.45 74.18 196.02 74.00 C 199.67 74.14 203.53 73.47 207.00 74.87 C 210.32 76.61 210.20 80.82 210.27 84.04 C 210.17 91.34 210.41 98.64 210.16 105.94 C 210.19 108.95 208.44 112.42 205.14 112.72 C 199.12 113.37 193.04 112.82 187.00 113.01 C 187.00 118.05 187.02 123.09 186.97 128.13 C 183.98 128.11 180.99 128.03 178.01 127.96 C 178.01 112.29 177.97 96.61 178.02 80.93 C 177.87 78.13 179.40 75.12 182.29 74.44 Z
  M 187.10 81.93 C 191.75 81.64 196.41 81.67 201.07 81.90 C 201.38 89.62 201.36 97.37 201.08 105.09 C 196.39 105.37 191.70 105.25 187.01 105.23 C 187.03 97.47 186.89 89.69 187.10 81.93 Z
  " fill-rule="evenodd" />

<!-- "o" -->
<path fill="#f32549" d=" M 221.44 74.54 C 227.54 73.36 233.86 74.30 240.06 73.97 C 243.41 73.79 248.00 74.27 249.09 78.13 C 250.32 83.66 249.53 89.38 249.74 95.00 C 249.54 99.90 250.39 105.01 248.76 109.73 C 247.34 112.60 243.84 113.11 240.98 113.02 C 235.27 112.94 229.56 113.14 223.86 112.92 C 220.62 112.95 217.52 110.50 217.50 107.11 C 216.94 99.43 217.40 91.71 217.25 84.02 C 217.25 80.54 217.37 75.72 221.44 74.54 Z
  M 226.63 81.82 C 231.21 81.71 235.80 81.69 240.38 81.84 C 240.58 89.61 240.56 97.39 240.39 105.15 C 235.81 105.31 231.23 105.28 226.65 105.19 C 226.40 97.41 226.43 89.61 226.63 81.82 Z" fill-rule="evenodd" />

<!-- "r" -->
<path fill="#f32549" d=" M 257.13 78.07 C 257.85 75.60 260.44 74.17 262.91 74.10 C 267.93 73.82 272.98 74.08 278.01 74.00 C 278.02 76.61 277.99 79.22 277.89 81.83 C 273.89 81.70 269.88 81.71 265.88 81.83 C 265.63 92.19 265.73 102.55 265.82 112.91 C 262.73 113.01 259.64 113.02 256.55 113.02 C 256.43 104.02 256.55 95.02 256.48 86.02 C 256.51 83.37 256.42 80.66 257.13 78.07 Z" />
</svg>