<svg version="1" xmlns="http://www.w3.org/2000/svg" width="24" height="24" viewBox="0 0 24 24"><g><path d="M15.781 22.333c-1.208.443-2.481.667-3.781.667-6.065 0-11-4.935-11-11s4.935-11 11-11c.69 0 1.364.072 2.019.194l-3.268 1.873c-.155.088-.251.254-.251.433s.096.345.252.434l1.5.856v2.21h-5.5c-.17 0-.329.086-.42.229l-2.252 3.5c-.136.211-.094.491.099.653l4.574 3.851v2.267c0 .276.224.5.5.5s.5-.224.5-.5v-2.5c0-.148-.065-.288-.178-.382l-4.416-3.717 1.866-2.901h5.727c.276 0 .5-.224.5-.5v-3c0-.18-.096-.345-.252-.434l-.993-.567 3.404-1.951c1.714.561 3.243 1.531 4.472 2.797l-1.43 2.655h-1.451c-.133 0-.26.053-.354.147l-1.75 1.75c-.195.195-.195.512 0 .707.098.098.226.146.354.146.128 0 .256-.049.354-.146l1.603-1.604h1.543c.184 0 .353-.101.44-.263l1.396-2.592c1.506 1.882 2.412 4.263 2.412 6.855 0 .276.224.5.5.5s.5-.224.5-.5c0-3.072-1.171-5.87-3.077-7.995l-.133-.146c-1.422-1.534-3.23-2.704-5.279-3.332l-.039-.01c-1.1-.334-2.265-.517-3.472-.517-6.617 0-12 5.383-12 12s5.383 12 12 12c1.418 0 2.806-.245 4.125-.728.259-.095.393-.382.298-.642-.095-.259-.382-.391-.642-.297zM19.5 12c-2.481 0-4.5 2.019-4.5 4.5 0 2.323 3.695 6.816 4.116 7.32.095.114.236.18.384.18s.289-.066.384-.18c.421-.504 4.116-4.997 4.116-7.32 0-2.481-2.019-4.5-4.5-4.5zm0 10.707c-1.245-1.566-3.5-4.715-3.5-6.207 0-1.93 1.57-3.5 3.5-3.5s3.5 1.57 3.5 3.5c0 1.491-2.256 4.64-3.5 6.207zM19.5 14.5c-1.103 0-2 .897-2 2s.897 2 2 2 2-.897 2-2-.897-2-2-2zm0 3c-.551 0-1-.449-1-1s.449-1 1-1 1 .449 1 1-.449 1-1 1z" style="fill:#fff;"/></g></svg>
