<svg version="1" xmlns="http://www.w3.org/2000/svg" width="24" height="48" viewBox="0 0 24 48">
	<g fill="#fff"><path d="M12 0c-6.617 0-12 5.383-12 12s5.383 12 12 12 12-5.383 12-12-5.383-12-12-12zm0 23c-6.065 0-11-4.935-11-11s4.935-11 11-11 11 4.935 11 11-4.935 11-11 11zM10.752 9.068c-.154-.091-.345-.09-.501-.002-.155.089-.251.255-.251.434v4.906c0 .178.094.342.247.432.078.046.166.068.253.068.084 0 .169-.021.245-.064l4.283-2.406c.156-.088.253-.252.255-.432.001-.179-.093-.346-.248-.435l-4.283-2.501zm.248 4.484v-3.181l2.777 1.621-2.777 1.56zM16.258 7h-8.517c-1.512 0-2.741 1.231-2.741 2.743v4.513c0 1.513 1.229 2.744 2.741 2.744h8.517c1.512 0 2.742-1.231 2.742-2.744v-4.513c0-1.512-1.23-2.743-2.742-2.743zm1.742 7.256c0 .962-.781 1.744-1.742 1.744h-8.517c-.96 0-1.741-.782-1.741-1.744v-4.513c0-.961.781-1.743 1.741-1.743h8.517c.961 0 1.742.782 1.742 1.743v4.513z"/></g>
	<g fill="#fff" transform="translate(0,24)"><path d="M10.752 9.068c-.154-.09-.345-.091-.501-.002-.155.09-.251.254-.251.434v4.906c0 .178.094.342.247.432.078.047.166.068.253.068.084 0 .169-.021.245-.063l4.283-2.407c.156-.088.253-.252.255-.432.001-.18-.093-.346-.248-.436l-4.283-2.5zM12 0c-6.617 0-12 5.383-12 12s5.383 12 12 12 12-5.383 12-12-5.383-12-12-12zm7 14.256c0 1.514-1.23 2.744-2.742 2.744h-8.517c-1.512 0-2.741-1.23-2.741-2.744v-4.513c0-1.513 1.229-2.743 2.741-2.743h8.517c1.512 0 2.742 1.23 2.742 2.743v4.513z"/></g>
</svg>