<svg xmlns="http://www.w3.org/2000/svg" width="24" height="48" viewBox="0 0 24 48">
	<g fill="#fff"><circle stroke="#fff" stroke-linecap="round" stroke-linejoin="round" stroke-miterlimit="10" cx="12" cy="12" r="11.5" fill="none"/><path stroke="#fff" stroke-linejoin="round" stroke-miterlimit="10" d="M18.5 16.166c0 1.289-1.045 2.334-2.333 2.334h-8.334c-1.288 0-2.333-1.045-2.333-2.334v-8.334c0-1.288 1.045-2.332 2.333-2.332h8.334c1.288 0 2.333 1.044 2.333 2.332v8.334zM5.5 9.5h4.266M14.234 9.5h4.266" fill="none"/><circle stroke="#fff" stroke-linejoin="round" stroke-miterlimit="10" cx="12" cy="11.5" r="3" fill="none"/><path d="M17 7h-1v1h1v-1z"/><path stroke="#fff" stroke-linejoin="round" stroke-miterlimit="10" fill="none" d="M7.5 5.5v4M9.5 5.5v4"/></g>
	<g fill="#fff" transform="translate(0,24)"><path d="M8.545 9.521c.132-.229.283-.441.455-.639v-2.882h-1v3.522l.545-.001z"/><circle cx="12" cy="11.5" r="3"/><path d="M10 8.056c.591-.344 1.269-.556 2-.556 1.477 0 2.754.813 3.447 2.006l2.553-.005v-1.669c0-1.01-.822-1.832-1.833-1.832h-6.167v2.056zm6-1.056h1v1h-1v-1zM12 0c-6.617 0-12 5.383-12 12s5.383 12 12 12 12-5.383 12-12-5.383-12-12-12zm7 16.166c0 1.563-1.271 2.834-2.833 2.834h-8.334c-1.562 0-2.833-1.271-2.833-2.834v-8.334c0-1.562 1.271-2.832 2.833-2.832h8.334c1.562 0 2.833 1.27 2.833 2.832v8.334zM7 9.524v-3.314c-.591.304-1 .913-1 1.622v1.695l1-.003z"/></g>
</svg>