<svg version="1" xmlns="http://www.w3.org/2000/svg" width="24" height="48" viewBox="0 0 24 48">
<!-- Default -->
<g style="fill:#fff;">
	<path d="M12 0c-6.617 0-12 5.383-12 12s5.383 12 12 12 12-5.383 12-12-5.383-12-12-12zm0 23c-6.065 0-11-4.935-11-11s4.935-11 11-11 11 4.935 11 11-4.935 11-11 11zM17.681 13.461c-.303-.28-.615-.571-.642-.667.008-.124.333-.544.647-.951l.517-.676c1.329-1.773 1.384-2.378 1.244-2.768-.076-.211-.316-.565-1.067-.565l-.208.01-2.169.02-.133-.009c-.126 0-.312.023-.486.127-.234.142-.361.39-.408.495-.345.914-1.281 2.639-1.705 3.07-.061-.3-.019-.924.005-1.289.071-1.083.16-2.432-.894-2.686-.287-.068-.509-.111-1.164-.119l-.327-.002c-.786 0-1.356.041-1.771.245-.294.146-.707.51-.642.918.034.221.246.423.468.45.142.017.28.075.315.121.168.31.22 1.749.08 2.348-.477-.454-1.332-2.03-1.714-3-.027-.07-.137-.309-.354-.467-.227-.165-.502-.219-.644-.236l-2.154.014c-.164.005-.572.046-.807.325-.275.324-.142.758-.084.908.069.158 1.735 3.897 3.674 5.918 1.498 1.56 3.173 1.728 3.823 1.728l.327-.011.425.003c.826 0 1.014-.034 1.177-.212.271-.288.289-.672.306-1.01.021-.446.059-.501.067-.524.141.043.483.441.688.678.3.347.609.706.96.946.515.353.962.405 1.184.405l.104-.006 2.026-.024c.13-.008.788-.073 1.056-.582.113-.217.188-.577-.108-1.068-.335-.608-1.042-1.327-1.612-1.857zm.628 2.51l-2.067.027-.026.501v-.5c-.085 0-.315-.022-.617-.229-.244-.168-.512-.476-.77-.776-.453-.524-.882-1.021-1.419-1.021l-.251.039c-.783.247-.82.989-.842 1.433l-.018.263-.466.008-.412-.003-.143.003c-.07.008-1.798.149-3.299-1.412-1.584-1.651-3.041-4.678-3.398-5.46l1.96-.021.158.081c.015.037 1.488 3.738 2.759 3.738.13 0 .253-.031.367-.093.313-.171.428-.544.486-.81.186-.835.152-2.608-.235-3.134l-.098-.115c.322-.04.708-.04.912-.04l.316.002c.589.007.737.043.941.092.233.056.16 1.172.129 1.648-.064.991-.126 1.928.492 2.327.116.075.252.115.392.115 1.24 0 2.736-3.769 2.775-3.776l2.31-.018.223-.004c-.068.213-.298.706-1.066 1.731l-.508.664c-1.11 1.438-1.194 1.756.143 2.996.679.63 1.168 1.189 1.401 1.612l.047.084-.176.048z"/>
</g>
<!-- Hover sprite -->
<g style="fill:#fff;" transform="translate(0,24)">
	<path d="M12 0c-6.617 0-12 5.383-12 12s5.383 12 12 12 12-5.383 12-12-5.383-12-12-12zm6.314 16.471l-2.002.022s-.432.077-.998-.312c-.748-.514-1.455-1.867-2.006-1.693-.757.239-.305 1.289-.664 1.674-.068.074-1.205.049-1.306.049 0 0-1.978.252-3.721-1.563-1.899-1.98-3.577-5.773-3.577-5.773s-.097-.258.009-.382c.118-.141.439-.149.439-.149l2.144-.014s.202.035.347.141c.119.086.186.25.186.25.295.748 1.73 3.766 2.422 3.39.461-.251.4-2.783.087-3.208-.18-.244-.518-.316-.666-.335-.121-.017.077-.297.334-.423.385-.189 1.066-.199 1.871-.191.627.007.808.046 1.053.105 1.184.285-.039 3.515.775 4.041.608.394 2.092-2.622 2.402-3.447 0 0 .078-.17.199-.243.123-.074.291-.051.291-.051l2.256-.015s.678-.08.787.225c.115.322-.253 1.07-1.174 2.299-1.514 2.018-1.682 1.828-.426 2.994 1.199 1.113 1.449 1.654 1.489 1.721.498.823-.551.888-.551.888z"/>
</g>
</svg>
