<svg version="1" xmlns="http://www.w3.org/2000/svg" width="24" height="48" viewBox="0 0 24 48">
<!-- Default -->
<g style="fill:#fff;">
	<path d="M12 0c-6.617 0-12 5.383-12 12s5.383 12 12 12 12-5.383 12-12-5.383-12-12-12zm0 23c-6.065 0-11-4.935-11-11s4.935-11 11-11 11 4.935 11 11-4.935 11-11 11zM15.839 9h-1.839v-.523c0-.087.017-.127.092-.147h1.408c.276 0 .5-.224.5-.5v-2.306c0-.275-.223-.499-.499-.5l-2.352-.007c-2.001.001-3.149 1.21-3.149 3.319v.664h-1.5c-.276 0-.5.224-.5.5v2c0 .276.224.5.5.5h1.5v6.5c0 .276.224.5.5.5h3c.276 0 .5-.224.5-.5v-6.5h1.595c.253 0 .466-.189.496-.439l.244-2c.018-.142-.026-.285-.122-.392-.095-.108-.231-.169-.374-.169zm-.687 2h-1.652c-.276 0-.5.224-.5.5v6.5h-2v-6.5c0-.276-.224-.5-.5-.5h-1.5v-1h1.5c.276 0 .5-.224.5-.5v-1.164c0-2.319 1.618-2.319 2.148-2.319l1.852.006v1.307h-.908c-.526 0-1.092.359-1.092 1.147v1.023c0 .276.224.5.5.5h1.774l-.122 1z"/>
</g>
<!-- Hover sprite -->
<g style="fill:#fff;" transform="translate(0,24)">
	<path d="M12 0c-6.617 0-12 5.383-12 12s5.383 12 12 12 12-5.383 12-12-5.383-12-12-12zm3.595 11.5h-2.095v7h-3v-7h-2v-2h2v-1.164c0-1.1.352-2.819 2.649-2.819l2.351.007v2.306h-1.408c-.244 0-.592.124-.592.647v1.023h2.339l-.244 2z"/>
</g>
</svg>
