<svg version="1" xmlns="http://www.w3.org/2000/svg" width="24" height="24" viewBox="0 0 24 24"><g style="fill:#464646;"><path d="M22 8v-5.5c0-.17-.086-.328-.229-.42-.143-.091-.321-.105-.478-.035l-.928.425c-3.947 1.815-7.676 3.53-15.865 3.53h-1c-1.93 0-3.5 1.57-3.5 3.5v2c0 1.93 1.57 3.5 3.5 3.5h1c.888 0 1.714.024 2.502.062.013 2.934 1.647 5.571 4.274 6.885.072.036.149.053.224.053.183 0 .359-.101.447-.276.123-.247.023-.547-.224-.671-2.268-1.135-3.682-3.401-3.717-5.93 5.839.418 9.029 1.876 12.363 3.409l.923.423.208.045c.095 0 .188-.027.271-.08.143-.092.229-.25.229-.42v-5.5c1.103 0 2-.897 2-2v-1c0-1.103-.897-2-2-2zm-18.5 6c-1.379 0-2.5-1.122-2.5-2.5v-2c0-1.378 1.121-2.5 2.5-2.5h1c.886 0 1.71-.023 2.5-.061v7.121c-.79-.037-1.614-.06-2.5-.06h-1zm17.5 3.721l-.212-.097c-3.44-1.583-6.729-3.086-12.788-3.505v-7.238c6.058-.419 9.345-1.921 12.783-3.503l.217-.099v14.442zm2-6.721c0 .551-.448 1-1 1v-3c.552 0 1 .449 1 1v1z"/></g></svg>