<?xml version="1.0" standalone="no"?>
<!DOCTYPE svg PUBLIC "-//W3C//DTD SVG 20010904//EN"
 "http://www.w3.org/TR/2001/REC-SVG-20010904/DTD/svg10.dtd">
<svg version="1.0" xmlns="http://www.w3.org/2000/svg"
 width="500.000000pt" height="392.000000pt" viewBox="0 0 500.000000 392.000000"
 preserveAspectRatio="xMidYMid meet">
<metadata>
Created by potrace 1.13, written by Peter Selinger 2001-2015
</metadata>
<g transform="translate(0.000000,392.000000) scale(0.100000,-0.100000)"
fill="#464646" stroke="none">
<path d="M2220 3759 c-235 -27 -517 -111 -745 -223 -483 -237 -848 -604 -1085
-1091 -169 -345 -240 -657 -240 -1050 0 -393 78 -740 239 -1059 l56 -111 2056
-3 2056 -2 55 117 c169 356 243 682 242 1068 0 396 -77 721 -253 1070 -127
251 -266 439 -467 635 -369 357 -826 580 -1327 645 -128 16 -457 19 -587 4z
m486 -290 c396 -39 788 -199 1094 -446 98 -80 281 -268 352 -363 362 -483 500
-1080 382 -1658 -26 -134 -84 -316 -133 -424 l-31 -68 -813 1 c-446 1 -1287 5
-1867 8 l-1055 6 -37 91 c-21 50 -51 138 -67 195 -186 650 -66 1311 337 1849
71 95 254 283 352 363 413 334 960 498 1486 446z"/>
<path d="M1409 2030 l-444 -1120 -112 0 -113 0 0 -90 0 -90 630 0 630 0 0 90
0 90 -120 0 c-66 0 -120 3 -120 6 0 11 232 659 239 666 3 4 118 -186 255 -422
137 -237 252 -430 256 -430 4 0 115 193 246 429 131 237 242 427 245 423 6 -7
239 -658 239 -667 0 -3 -54 -5 -120 -5 l-120 0 0 -90 0 -90 625 0 625 0 0 90
0 89 -106 3 -106 3 -432 1113 c-410 1058 -432 1112 -455 1110 -20 -3 -64 -83
-330 -605 -168 -331 -308 -603 -311 -603 -3 0 -149 275 -324 610 -175 336
-322 610 -326 610 -3 0 -206 -504 -451 -1120z"/>
</g>
</svg>
