<?xml version="1.0" encoding="utf-8"?>
<!-- Svg Vector Icons : http://www.onlinewebfonts.com/icon -->
<!DOCTYPE svg PUBLIC "-//W3C//DTD SVG 1.1//EN" "http://www.w3.org/Graphics/SVG/1.1/DTD/svg11.dtd">
<svg version="1.1" xmlns="http://www.w3.org/2000/svg" xmlns:xlink="http://www.w3.org/1999/xlink" x="0px" y="0px" viewBox="0 0 1000 1000" enable-background="new 0 0 1000 1000" xml:space="preserve">
<metadata> Svg Vector Icons : http://www.onlinewebfonts.com/icon </metadata>
<g style="fill:#f85c78;"><path d="M500,990C229.8,990,10,770.2,10,500C10,229.8,229.8,10,500,10c270.2,0,490,219.7,490,490C990,770.2,770.2,990,500,990z M500,43.6C248.3,43.6,43.6,248.3,43.6,500c0,251.7,204.8,456.4,456.4,456.4c251.7,0,456.4-204.7,456.4-456.4C956.4,248.3,751.6,43.6,500,43.6z"/><path d="M324.5,818.2h-52.5c-28.9,0-52.5-23.5-52.5-52.4v-116L440,429.5c-1.3-9.1-2-18.5-2-27.8c0-109.2,88.9-198.1,198.2-198.1s198.1,88.9,198.1,198.1c0,109.2-88.9,198.1-198.1,198.1c-19.7,0-39-2.8-57.7-8.5l-44.9,44.9h-63.4v72.9h-72.9v72.8h-72.8V818.2z M251.7,663.2v102.7c0,11.2,9.1,20.3,20.4,20.3h20.4v-36.4h72.8v-72.9h72.8v-72.9h82.3l49.8-49.7l9.6,3.4c18.1,6.6,37.1,9.9,56.5,9.9c91.6,0,166-74.4,166-166c0-91.5-74.5-166-166-166c-91.6,0-166,74.5-166,166c0,10.3,1,20.5,2.7,30.4l1.6,8.4L251.7,663.2z"/><path d="M672.6,427.9c-34.5,0-62.6-28.1-62.6-62.6c0-34.6,28.1-62.7,62.6-62.7c34.6,0,62.7,28.1,62.7,62.7C735.2,399.9,707.1,427.9,672.6,427.9z M672.6,318.7c-25.7,0-46.6,21-46.6,46.6c0,25.7,20.9,46.6,46.6,46.6c25.7,0,46.6-20.9,46.6-46.6C719.2,339.7,698.3,318.7,672.6,318.7z"/></g>
</svg>