<svg version="1" xmlns="http://www.w3.org/2000/svg" width="24" height="24" viewBox="0 0 24 24"><g style="fill:#f85c78;"><path d="M12 0c-6.617 0-12 5.383-12 12s5.383 12 12 12c4.38 0 5.979-1.641 6.549-3.017.467-1.126.327-2.265.06-2.908l.333-.333c.393-.395.626-.907.654-1.442.029-.556-.163-1.069-.541-1.446l-1.549-1.549c-.737-.737-2.092-.682-2.887.114l-.255.254c-1.454-1.203-2.838-2.586-4.038-4.038l.254-.254c.828-.827.879-2.123.115-2.889l-1.55-1.549c-.736-.736-2.092-.68-2.887.117l-.945.943c-.976.976-1.192 2.468-.513 3.546 2.442 3.872 5.78 7.21 9.652 9.651.412.261.897.398 1.402.398.701 0 1.392-.277 1.945-.748.09.476.106 1.208-.261 1.939-.725 1.447-2.64 2.211-5.538 2.211-6.065 0-11-4.935-11-11s4.935-11 11-11 11 4.935 11 11c0 2.234-.665 4.384-1.924 6.217-.156.227-.099.539.129.695.228.156.54.098.695-.129 1.373-2 2.1-4.346 2.1-6.783 0-6.617-5.383-12-12-12zm2.985 18.354c-3.747-2.362-6.977-5.592-9.34-9.339-.432-.686-.274-1.656.376-2.305l.945-.943c.232-.232.538-.365.841-.365.246 0 .471.089.632.25l1.549 1.548c.375.375.323 1.036-.115 1.475l-.573.573c-.18.181-.196.467-.037.666 1.401 1.75 3.069 3.417 4.823 4.823.198.158.486.144.666-.037l.575-.573c.419-.419 1.113-.473 1.474-.114l1.549 1.549c.174.175.263.418.249.686-.015.289-.145.568-.363.788l-.946.944c-.63.632-1.635.795-2.305.374z"/></g></svg>
