<?xml version="1.0" encoding="utf-8"?>
<!DOCTYPE svg PUBLIC "-//W3C//DTD SVG 1.1//EN" "http://www.w3.org/Graphics/SVG/1.1/DTD/svg11.dtd">
<svg version="1.1" xmlns="http://www.w3.org/2000/svg" xmlns:xlink="http://www.w3.org/1999/xlink" x="0px" y="0px" viewBox="0 0 1000 1000" enable-background="new 0 0 1000 1000" xml:space="preserve">
<g><path d="M946.5,153.4H53.6c-24.1,0-43.6,19.8-43.6,44.3V925c0,24.5,19.5,44.3,43.6,44.3h892.7c24.1,0,43.6-19.8,43.6-44.3V197.7C990,173.3,970.5,153.4,946.4,153.4z M953.5,912.5c0,8.8-7,15.9-15.7,15.9H62.2c-8.7,0-15.7-7.1-15.7-15.9V203.4c0-8.8,7-15.9,15.7-15.9h875.6c8.7,0,15.7,7.1,15.7,15.9V912.5z"/><path d="M297.9,260.2c0,7.5-5.7,13.6-12.7,13.6h-10.6c-7,0-12.7-6.1-12.7-13.6V44.3c0-7.5,5.7-13.6,12.7-13.6h10.6c7,0,12.7,6.1,12.7,13.6V260.2z"/><path d="M738,260.2c0,7.5-5.7,13.6-12.7,13.6h-10.6c-7,0-12.7-6.1-12.7-13.6V44.3c0-7.5,5.7-13.6,12.7-13.6h10.6c7,0,12.7,6.1,12.7,13.6V260.2z"/><path d="M973,397.9c0,7.4-6,13.5-13.5,13.5H32.3c-7.4,0-13.5-6-13.5-13.5v-11.2c0-7.4,6-13.5,13.5-13.5h927.2c7.4,0,13.5,6,13.5,13.5V397.9z"/><path d="M429.3,586.5c0,7.4-1.8,13.5-3.9,13.5H154.8c-2.2,0-3.9-6-3.9-13.5v-11.2c0-7.4,1.8-13.5,3.9-13.5h270.5c2.2,0,3.9,6,3.9,13.5L429.3,586.5L429.3,586.5z"/><path d="M849.1,586.5c0,7.4-1.8,13.5-3.9,13.5H574.7c-2.2,0-3.9-6-3.9-13.5v-11.2c0-7.4,1.8-13.5,3.9-13.5h270.5c2.2,0,3.9,6,3.9,13.5V586.5z"/><path d="M429.3,785.2c0,7.4-1.8,13.5-3.9,13.5H154.8c-2.2,0-3.9-6-3.9-13.5V774c0-7.4,1.8-13.5,3.9-13.5h270.5c2.2,0,3.9,6,3.9,13.5L429.3,785.2L429.3,785.2z"/><path d="M849.1,785.2c0,7.4-1.8,13.5-3.9,13.5H574.7c-2.2,0-3.9-6-3.9-13.5V774c0-7.4,1.8-13.5,3.9-13.5h270.5c2.2,0,3.9,6,3.9,13.5V785.2z"/></g>
</svg>