<?xml version="1.0" encoding="utf-8"?><!DOCTYPE svg PUBLIC "-//W3C//DTD SVG 1.1//EN" "http://www.w3.org/Graphics/SVG/1.1/DTD/svg11.dtd"><svg xmlns="http://www.w3.org/2000/svg" xmlns:xlink="http://www.w3.org/1999/xlink"><symbol viewBox="0 0 24 24" id="svg-sprite__address"><path d="M16 7c0-2.206-1.794-4-4-4S8 4.794 8 7s1.794 4 4 4 4-1.794 4-4zM9 7c0-1.654 1.346-3 3-3s3 1.346 3 3-1.346 3-3 3-3-1.346-3-3zm3 15.024a.497.497 0 0 0 .417-.225c.284-.429 6.938-10.551 6.938-14.443C19.355 3.3 16.056 0 12 0S4.644 3.3 4.644 7.356c0 3.892 6.655 14.015 6.939 14.443a.497.497 0 0 0 .417.225zM12 1a6.363 6.363 0 0 1 6.355 6.356c0 3.066-4.88 10.936-6.355 13.247-1.476-2.31-6.356-10.181-6.356-13.247A6.363 6.363 0 0 1 12 1zm5.042 18.201a.5.5 0 1 0-.084.996c4.558.384 5.93 1.123 6.051 1.255C22.715 22.007 18.785 23 12 23S1.285 22.007.991 21.548c.121-.227 1.483-.963 6.01-1.348a.5.5 0 0 0 .456-.54.493.493 0 0 0-.541-.456C2.327 19.594 0 20.367 0 21.5 0 23.93 10.772 24 12 24s12-.07 12-2.5c0-1.137-2.341-1.911-6.958-2.299z"/></symbol><symbol viewBox="0 0 24 24" id="svg-sprite__age-adults"><path d="M24 14.5v-2a.5.5 0 0 0-.5-.5h-3a.482.482 0 0 0-.275.094l-1.251-3.752A.5.5 0 0 0 18.5 8h-13a.5.5 0 0 0-.474.342l-1.251 3.752A.482.482 0 0 0 3.5 12h-3a.5.5 0 0 0-.5.5v2a.5.5 0 0 0 .5.5h1.793L.147 17.146l-.108.162L0 17.5v4a.5.5 0 0 0 .5.5H1v1.5a.5.5 0 0 0 .5.5h3a.5.5 0 0 0 .5-.5V22h3v.5a.5.5 0 0 0 .5.5h7a.5.5 0 0 0 .5-.5V22h3v1.5a.5.5 0 0 0 .5.5h3a.5.5 0 0 0 .5-.5V22h.5a.5.5 0 0 0 .5-.5v-4l-.039-.192-.108-.162L21.707 15H23.5a.5.5 0 0 0 .5-.5zM5.86 9h12.28l1.667 5H4.194L5.86 9zM1 13h2v1H1v-1zm3 5v1H1v-1h3zm0 5H2v-1h2v1zm11-1H9v-2h6v2zm7 1h-2v-1h2v1zm.5-2H16v-1.5a.5.5 0 0 0-.5-.5h-7a.5.5 0 0 0-.5.5V21H1v-1h3.5a.5.5 0 0 0 .5-.5v-2a.5.5 0 0 0-.5-.5H1.707l2-2h16.586l2 2H19.5a.5.5 0 0 0-.5.5v2a.5.5 0 0 0 .5.5H23v1h-.5zm.5-2h-3v-1h3v1zm0-5h-2v-1h2v1zm-11 2a.5.5 0 0 0-.5.5v1a.5.5 0 0 0 1 0v-1a.5.5 0 0 0-.5-.5z"/></symbol><symbol viewBox="0 0 24 24" id="svg-sprite__age-kids"><circle cx="4.499" cy="5" r=".5"/><path d="M23.796 18.812a2.484 2.484 0 0 0-2.327-1.591h-.004c-.604-1.508-1.656-3.247-2.466-3.872V11c0-.478-.095-.93-.234-1.362l3.903 2.214a.5.5 0 0 0 .494-.87l-5.401-3.063a4.478 4.478 0 0 0-2.512-1.344.495.495 0 0 0-.25-.075h-2.582l-1.568-3.786a3.01 3.01 0 0 0-3.885-1.637l-1.619.646.007.017c-.127.034-.254.07-.377.125L1.816 3.293a2.753 2.753 0 0 0-1.69 3.416c.423 1.35 1.786 2.162 3.236 1.866l1.292-.433 1.197 4.434c-.646.576-2.351 2.265-3.311 4.643l-.022-.002c-1.036 0-1.95.623-2.329 1.588a2.483 2.483 0 0 0 .037 1.913 2.484 2.484 0 0 0 1.379 1.327A28.378 28.378 0 0 0 11.999 24c3.581 0 7.073-.656 10.379-1.95a2.483 2.483 0 0 0 1.38-1.326 2.486 2.486 0 0 0 .038-1.912zM14.358 7.5l-.75 3H10.89l-.75-3h4.218zM9.925 3.097l1.41 3.403H9.821L8.279 3.109a2.48 2.48 0 0 0-.968-1.094l.024-.01a2.008 2.008 0 0 1 2.59 1.092zM6.729 13.14a.5.5 0 0 0 .169-.519L5.481 7.37a.492.492 0 0 0-.246-.31.495.495 0 0 0-.395-.034l-1.735.585A1.752 1.752 0 0 1 1.081 6.41c-.281-.899.192-1.855 1.112-2.191l3.193-1.441a1.499 1.499 0 0 1 1.982.746l1.655 3.641.989 3.957a.5.5 0 0 0 .485.379h3.5c.23 0 .43-.156.485-.379l.878-3.502A3.498 3.498 0 0 1 17.999 11v2.625a.5.5 0 0 0 .309.462c.356.148 1.441 1.61 2.16 3.337-.62.24-1.251.452-1.891.636-1.058-2.587-3.839-4.56-6.577-4.56-2.696 0-5.565 1.999-6.658 4.533a22.755 22.755 0 0 1-1.799-.606c1.096-2.564 3.164-4.269 3.186-4.287zm10.865 5.158c-3.684.89-7.589.884-11.272-.02.984-2.093 3.443-3.779 5.677-3.779 2.265.001 4.648 1.666 5.595 3.799zm5.248 2.025c-.16.367-.454.649-.828.795-6.382 2.5-13.658 2.497-20.043-.005a1.5 1.5 0 1 1 1.094-2.793c5.661 2.216 12.198 2.219 17.857.005a1.512 1.512 0 0 1 1.942.851c.147.373.138.78-.022 1.147z"/></symbol><symbol viewBox="0 0 24 24" id="svg-sprite__arrow-right"><path d="M23.981 11.793l-.01-.033-.052-.158-.029-.055-.067-.119-.051-.061-.079-.09-.015-.017-12-11a1 1 0 0 0-1.351 1.475l10.104 9.263H1.003a1 1 0 1 0 0 2h19.429l-10.104 9.263a1 1 0 0 0 1.351 1.474l12-11 .015-.017.08-.09.05-.061.067-.119.029-.054.052-.16.01-.032.021-.205-.022-.204z"/></symbol><symbol viewBox="0 0 24 24" id="svg-sprite__celebrity"><path d="M18.219 7.611l-4.732-2.152.432-4.697a.501.501 0 0 0-.851-.4l-2.984 2.983-4.28-1.718a.499.499 0 0 0-.539.11.5.5 0 0 0-.115.54L6.858 6.57 3.873 9.555a.504.504 0 0 0-.1.566c.09.19.275.308.499.286l4.698-.431 1.894 4.168-3.485.871A.5.5 0 0 0 7 15.5V21H5.5a.5.5 0 0 0-.5.5v2a.5.5 0 0 0 .5.5h12a.5.5 0 0 0 .5-.5v-2a.5.5 0 0 0-.5-.5H16v-5.5a.5.5 0 0 0-.379-.485l-3.48-.87.791-4.725 5.161-.861a.5.5 0 0 0 .126-.948zM17 23H6v-1h11v1zm-2-2H8v-5.109l3.5-.875 3.5.875V21zM12.416 8.493a.5.5 0 0 0-.411.411l-.652 3.897-1.619-3.562a.5.5 0 0 0-.455-.293l-.046.002-3.675.336 2.24-2.239a.5.5 0 0 0 .111-.538L6.511 2.99l3.505 1.407a.499.499 0 0 0 .54-.11l2.24-2.239-.338 3.674a.502.502 0 0 0 .291.501l3.564 1.62-3.897.65z"/></symbol><symbol viewBox="0 0 24 24" id="svg-sprite__chevron-left"><path d="M10.181 11.998l9.96-8.537a.5.5 0 0 0 .054-.705L17.982.174a.5.5 0 0 0-.705-.055L3.86 11.618a.502.502 0 0 0 0 .759l13.417 11.502c.092.078.207.12.326.12l.038-.001a.498.498 0 0 0 .341-.174l2.213-2.582a.498.498 0 0 0-.054-.704l-9.96-8.54z"/></symbol><symbol viewBox="0 0 24 24" id="svg-sprite__chevron-right"><path d="M20.143 11.62L6.725.119a.497.497 0 0 0-.705.054L3.807 2.755a.5.5 0 0 0 .054.705l9.96 8.54-9.96 8.536a.5.5 0 0 0-.055.705l2.213 2.582a.499.499 0 0 0 .705.055L20.143 12.38a.502.502 0 0 0 0-.76z"/></symbol><symbol viewBox="0 0 24 24" id="svg-sprite__close"><path d="M13.416 12.001L23.708 1.708A.999.999 0 1 0 22.294.294L12.001 10.587 1.708.294A.999.999 0 1 0 .294 1.708l10.292 10.293L.294 22.294a.999.999 0 1 0 1.414 1.414l10.293-10.293 10.293 10.293a.997.997 0 0 0 1.414 0 .999.999 0 0 0 0-1.414L13.416 12.001z"/></symbol><symbol viewBox="0 0 24 24" id="svg-sprite__club"><path d="M20.5 0h-10a.5.5 0 0 0-.5.5V8H2.5a.5.5 0 0 0-.5.5v15a.5.5 0 0 0 .5.5h18a.5.5 0 0 0 .5-.5V.5a.5.5 0 0 0-.5-.5zM3 15h1.5a.5.5 0 0 0 0-1H3v-1h2.5a.5.5 0 0 0 0-1H3v-1h3.5a.5.5 0 0 0 0-1H3V9h9v14H8v-2.5a.5.5 0 0 0-.5-.5h-3a.5.5 0 0 0-.5.5V23H3v-8zm2 8v-2h2v2H5zm11 0v-2h2v2h-2zm4 0h-1v-2.5a.5.5 0 0 0-.5-.5h-3a.5.5 0 0 0-.5.5V23h-2V8.5a.5.5 0 0 0-.5-.5H11V7h2.5a.5.5 0 0 0 0-1H11V5h3.5a.5.5 0 0 0 0-1H11V3h5.5a.5.5 0 0 0 0-1H11V1h9v22z"/></symbol><symbol viewBox="0 0 24 24" id="svg-sprite__district"><path d="M11.59 7.998a2.411 2.411 0 0 0 2.408-2.409A2.411 2.411 0 0 0 11.59 3.18a2.411 2.411 0 0 0-2.408 2.409 2.411 2.411 0 0 0 2.408 2.409zm0-3.818c.776 0 1.408.632 1.408 1.409s-.632 1.409-1.408 1.409c-.776 0-1.408-.632-1.408-1.409s.632-1.409 1.408-1.409zm8.407.268A.499.499 0 0 0 19.5 4h-2.555a5.595 5.595 0 0 0-5.355-4C9.06 0 6.92 1.69 6.233 4H3.5a.499.499 0 0 0-.497.448l-2 19A.501.501 0 0 0 1.5 24h20a.499.499 0 0 0 .498-.553L19.997 4.448zM7.422 17l.389-6h.572c1.318 2 2.713 3.683 2.823 3.814a.499.499 0 0 0 .768 0A46.94 46.94 0 0 0 14.795 11h.572l.388 6H7.422zm8.399 1l.324 5H7.033l.324-5h8.464zM3.319 11h3.49l-.389 6H2.687l.632-6zm13.051 0h3.312l.632 6h-3.555l-.389-6zm2.68-6l.526 5h-3.271l-.091-1.406c.567-1.112.964-2.179.964-3.006 0-.199-.011-.395-.032-.588h1.904zm-7.46-4a4.593 4.593 0 0 1 4.588 4.588c0 1.977-3.021 6.159-4.588 8.115C10.023 11.747 7 7.565 7 5.588A4.594 4.594 0 0 1 11.59 1zM3.95 5h2.082c-.021.193-.032.39-.032.588 0 .827.397 1.895.964 3.007L6.873 10h-3.45l.527-5zM2.582 18h3.774l-.324 5H2.055l.527-5zm14.564 5l-.323-5h3.596l.526 5h-3.799z"/></symbol><symbol viewBox="0 0 24 24" id="svg-sprite__filters"><path d="M22.5 0h-21C.673 0 0 .673 0 1.5v20c0 .827.673 1.5 1.5 1.5h21c.827 0 1.5-.673 1.5-1.5v-20c0-.827-.673-1.5-1.5-1.5zm.5 21.5a.5.5 0 0 1-.5.5h-21a.5.5 0 0 1-.5-.5v-20a.5.5 0 0 1 .5-.5h21a.5.5 0 0 1 .5.5v20zM20.521 5H14.45c-.233-1.14-1.243-2-2.45-2s-2.217.86-2.45 2H3.52a.5.5 0 0 0 0 1h6.03c.233 1.14 1.243 2 2.45 2s2.217-.86 2.45-2h6.071a.5.5 0 0 0 0-1zM12 7c-.827 0-1.5-.673-1.5-1.5S11.173 4 12 4a1.5 1.5 0 0 1 1.499 1.494l-.001.006.001.006A1.5 1.5 0 0 1 12 7zm8.521 4H10.45C10.217 9.86 9.207 9 8 9s-2.217.86-2.45 2H3.52a.5.5 0 0 0 0 1h2.03c.233 1.14 1.242 2 2.45 2s2.217-.86 2.45-2h10.071a.5.5 0 0 0 0-1zM8 13c-.827 0-1.5-.673-1.5-1.5S7.173 10 8 10a1.5 1.5 0 0 1 1.499 1.487l-.003.013.003.013A1.5 1.5 0 0 1 8 13zm12.521 4H12.45c-.233-1.14-1.242-2-2.45-2s-2.217.86-2.45 2H3.52a.5.5 0 0 0 0 1h4.03c.233 1.14 1.242 2 2.45 2s2.217-.86 2.45-2h8.071a.5.5 0 0 0 0-1zM10 19c-.827 0-1.5-.673-1.5-1.5S9.173 16 10 16a1.5 1.5 0 0 1 1.499 1.487l-.003.013.003.013A1.5 1.5 0 0 1 10 19z"/></symbol><symbol viewBox="0 0 24 24" id="svg-sprite__gender-female"><path d="M19 7.5C19 3.364 15.636 0 11.5 0S4 3.364 4 7.5c0 3.967 3.098 7.216 7 7.475V20H8.5a.5.5 0 0 0 0 1H11v2.5a.5.5 0 0 0 1 0V21h2.5a.5.5 0 0 0 0-1H12v-5.025c3.902-.259 7-3.508 7-7.475zm-14 0C5 3.916 7.916 1 11.5 1S18 3.916 18 7.5 15.084 14 11.5 14 5 11.084 5 7.5z"/></symbol><symbol viewBox="0 0 24 24" id="svg-sprite__gender-male"><path d="M23.962.309a.5.5 0 0 0-.271-.271L23.5 0h-7a.5.5 0 0 0 0 1h5.793l-8.156 8.156A8.45 8.45 0 0 0 8.5 7C3.813 7 0 10.813 0 15.5S3.813 24 8.5 24s8.5-3.813 8.5-8.5a8.45 8.45 0 0 0-2.156-5.637L23 1.707V7.5a.5.5 0 0 0 1 0v-7l-.038-.191zM8.5 23C4.364 23 1 19.636 1 15.5S4.364 8 8.5 8s7.5 3.364 7.5 7.5S12.636 23 8.5 23z"/></symbol><symbol viewBox="0 0 24 24" id="svg-sprite__gender-male-female"><path d="M10.831 7.383a.5.5 0 1 0-.639.769A4.989 4.989 0 0 1 12 12c0 2.757-2.243 5-5 5s-5-2.243-5-5a4.972 4.972 0 0 1 4.542-4.979.501.501 0 0 0-.09-.997A5.968 5.968 0 0 0 1 12c0 2.967 2.167 5.431 5 5.91V21H4.5a.5.5 0 0 0 0 1H6v1.5a.5.5 0 0 0 1 0V22h1.5a.5.5 0 0 0 0-1H7v-3c3.309 0 6-2.691 6-6 0-1.79-.79-3.473-2.169-4.617zM22.962.309a.5.5 0 0 0-.271-.271L22.5 0h-4a.5.5 0 0 0 0 1h2.793L16.87 5.423A5.965 5.965 0 0 0 13 4c-3.309 0-6 2.691-6 6 0 1.797.796 3.485 2.184 4.63a.5.5 0 1 0 .637-.771A4.988 4.988 0 0 1 8 10c0-2.757 2.243-5 5-5s5 2.243 5 5a4.971 4.971 0 0 1-4.541 4.979.5.5 0 0 0 .044.998l.045-.002A5.966 5.966 0 0 0 19 10a5.965 5.965 0 0 0-1.423-3.87L22 1.707V4.5a.5.5 0 0 0 1 0v-4l-.038-.191z"/></symbol><symbol viewBox="0 0 24 24" id="svg-sprite__link"><path d="M18.722 13.57l3.81-4.114c1.53-1.652.842-4.672-.772-6.167l-1.823-1.688C19.184.902 18.062.413 16.935.289c-1.328-.146-2.467.214-3.206 1.013L9.917 5.416a3.002 3.002 0 0 0 .163 4.239l.089.083a1 1 0 1 0 1.358-1.469l-.089-.082a1.002 1.002 0 0 1-.054-1.414l3.81-4.114c.294-.317.849-.457 1.521-.383.705.077 1.418.379 1.86.79L20.4 4.757c.864.8 1.351 2.599.663 3.341l-3.81 4.114a1.002 1.002 0 0 1-1.413.054l-.089-.083a1 1 0 0 0-1.359 1.468l.089.083a3.003 3.003 0 0 0 4.241-.164zm-9.205-3.306a2.987 2.987 0 0 0-2.154-.798 2.986 2.986 0 0 0-2.086.96l-3.81 4.113C.728 15.337.456 16.5.702 17.814c.209 1.113.783 2.195 1.537 2.892l1.823 1.688c.901.836 2.256 1.347 3.542 1.347 1.017 0 1.99-.318 2.666-1.048l3.81-4.113a3.002 3.002 0 0 0-.162-4.239l-.09-.083a1 1 0 1 0-1.358 1.468l.089.083c.405.375.429 1.009.055 1.413l-3.81 4.113c-.687.742-2.518.395-3.383-.406l-1.823-1.688c-.442-.41-.799-1.098-.93-1.795-.125-.666-.028-1.229.266-1.546l3.811-4.114a.996.996 0 0 1 1.413-.052l.089.083a1 1 0 1 0 1.358-1.469l-.088-.084zm-1.934 6.503a.997.997 0 0 0 1.413-.054l7.475-8.07a1 1 0 0 0-1.468-1.359l-7.475 8.07a1 1 0 0 0 .055 1.413z"/></symbol><symbol viewBox="0 0 500 392" id="svg-sprite__metro"><g transform="matrix(.1 0 0 -.1 0 392)"><path d="M2220 3759c-235-27-517-111-745-223-483-237-848-604-1085-1091-169-345-240-657-240-1050s78-740 239-1059l56-111 2056-3 2056-2 55 117c169 356 243 682 242 1068 0 396-77 721-253 1070-127 251-266 439-467 635-369 357-826 580-1327 645-128 16-457 19-587 4zm486-290c396-39 788-199 1094-446 98-80 281-268 352-363 362-483 500-1080 382-1658-26-134-84-316-133-424l-31-68-813 1c-446 1-1287 5-1867 8l-1055 6-37 91c-21 50-51 138-67 195-186 650-66 1311 337 1849 71 95 254 283 352 363 413 334 960 498 1486 446z"/><path d="M1409 2030L965 910H740V730h1260v180h-120c-66 0-120 3-120 6 0 11 232 659 239 666 3 4 118-186 255-422 137-237 252-430 256-430s115 193 246 429c131 237 242 427 245 423 6-7 239-658 239-667 0-3-54-5-120-5h-120V730h1250v179l-106 3-106 3-432 1113c-410 1058-432 1112-455 1110-20-3-64-83-330-605-168-331-308-603-311-603s-149 275-324 610c-175 336-322 610-326 610-3 0-206-504-451-1120z"/></g></symbol><symbol viewBox="0 0 24 24" id="svg-sprite__price"><path d="M16 0c-4.411 0-8 3.589-8 8-4.411 0-8 3.589-8 8s3.589 8 8 8 8-3.589 8-8c4.411 0 8-3.589 8-8s-3.589-8-8-8zm-1 16c0 3.86-3.141 7-7 7s-7-3.14-7-7 3.141-7 7-7l.07.003a8.008 8.008 0 0 0 6.927 6.927L15 16zm1-1c-3.859 0-7-3.14-7-7s3.141-7 7-7 7 3.14 7 7-3.141 7-7 7zm-.5-9.5c.552 0 1 .449 1 1a.5.5 0 0 0 1 0c0-.929-.64-1.706-1.5-1.929V4a.5.5 0 0 0-1 0v.571c-.86.223-1.5.999-1.5 1.929 0 1.103.898 2 2 2a1.001 1.001 0 1 1-1 1 .5.5 0 0 0-1 0c0 .929.64 1.706 1.5 1.929V12a.5.5 0 0 0 1 0v-.571c.86-.223 1.5-1 1.5-1.929 0-1.103-.897-2-2-2a1.001 1.001 0 0 1 0-2zm-8 8c.552 0 1 .449 1 1a.5.5 0 0 0 1 0c0-.929-.64-1.706-1.5-1.929V12a.5.5 0 0 0-1 0v.571c-.86.223-1.5 1-1.5 1.929 0 1.103.898 2 2 2a1.001 1.001 0 1 1-1 1 .5.5 0 0 0-1 0c0 .929.64 1.706 1.5 1.929V20a.5.5 0 0 0 1 0v-.571c.86-.223 1.5-1 1.5-1.929 0-1.103-.898-2-2-2a1.001 1.001 0 0 1 0-2z"/></symbol><symbol viewBox="0 0 24 24" id="svg-sprite__review"><path d="M23.5 1H.5a.5.5 0 0 0-.5.5v16a.5.5 0 0 0 .5.5H7v3.5a.5.5 0 0 0 .309.462L7.5 22a.5.5 0 0 0 .353-.146L11.707 18H23.5a.5.5 0 0 0 .5-.5v-16a.5.5 0 0 0-.5-.5zM23 17H11.5a.504.504 0 0 0-.354.146L8 20.293V17.5a.5.5 0 0 0-.5-.5H1V2h22v15zM5.5 7h9a.5.5 0 0 0 0-1h-9a.5.5 0 0 0 0 1zm0 3h13a.5.5 0 0 0 0-1h-13a.5.5 0 0 0 0 1zm0 3h13a.5.5 0 0 0 0-1h-13a.5.5 0 0 0 0 1z"/></symbol><symbol viewBox="0 0 150 50" id="svg-sprite__ribbon-left"><path d="M0 0h150v50H0l30-25z"/></symbol><symbol viewBox="0 0 24 24" id="svg-sprite__skill"><path d="M18.155 11.006c-2.121-.07-4.503 1.107-5.217 3.899-.547-.438-1.292-.736-2.167-.857-1.138-.156-2.552-.007-3.65.592l.337-3.203 2.743-.414a.499.499 0 0 0 .398-.331l.875-2.528a.493.493 0 0 0 .017-.261l-.5-2.5A.502.502 0 0 0 10.5 5h-5a.5.5 0 0 0-.308.106c-.071.056-1.758 1.386-2.21 3.031C1.916 12.026.729 16.675 1 18.013c0 1.562 1.372 3.001 3.864 4.054 2.216.936 5.086 1.472 7.876 1.472 5.021 0 10.385-1.843 10.385-7.018 0-3.644-2.576-5.414-4.97-5.515zM12.74 22.538c-2.661 0-5.39-.508-7.487-1.394C3.185 20.271 2 19.13 1.991 17.917c-.272-1.389 1.405-7.506 1.956-9.517.3-1.091 1.365-2.082 1.734-2.4h4.41l.393 1.965-.731 2.114-1.708.258 1.373-2.06a.5.5 0 0 0-.139-.693l-1.5-1a.501.501 0 0 0-.67.104l-2 2.5a.501.501 0 0 0 .781.625L7.604 7.67l.703.469-1.722 2.583a.49.49 0 0 0-.083.236l-.499 4.739a.5.5 0 0 0 .872.383c.708-.806 2.291-1.243 3.758-1.042 1.069.147 1.858.6 2.166 1.24.097.203.32.312.54.276a.5.5 0 0 0 .408-.45c.25-2.934 2.437-4.21 4.364-4.1 1.998.085 4.013 1.514 4.013 4.516.001 5.584-7.183 6.018-9.384 6.018z"/></symbol><symbol viewBox="0 0 510 510" id="svg-sprite__star"><path fill="#f64866" d="M255 402.212l157.59 95.038-41.693-179.239L510 197.472l-183.37-15.734L255 12.75l-71.629 168.988L0 197.472l139.103 120.539L97.41 497.25z"/></symbol><symbol viewBox="0 0 24 24" id="svg-sprite__star-empty"><path d="M19.476 9.634a.5.5 0 0 0-.404-.341l-4.892-.707-2.188-4.405c-.17-.341-.728-.339-.896 0L8.91 8.586l-4.892.707a.501.501 0 0 0-.277.854l3.538 3.429-.835 4.839a.501.501 0 0 0 .724.529l4.375-2.287 4.377 2.287a.5.5 0 0 0 .725-.529l-.835-4.839 3.537-3.429a.5.5 0 0 0 .129-.513zm-4.551 3.408a.503.503 0 0 0-.146.444l.708 4.103-3.712-1.94a.497.497 0 0 0-.463 0l-3.71 1.939.708-4.103a.5.5 0 0 0-.146-.444l-2.997-2.904 4.144-.598a.5.5 0 0 0 .377-.273l1.854-3.737L13.4 9.267a.501.501 0 0 0 .377.272l4.144.599-2.996 2.904z"/></symbol><symbol viewBox="0 0 24 24" id="svg-sprite__star-filled"><path d="M20.021 9.535l-5.9-.852-2.635-5.307-2.634 5.307-5.9.852 4.269 4.136-1.006 5.837 5.271-2.756 5.272 2.755-1.006-5.836z"/></symbol><symbol viewBox="0 0 510 510" id="svg-sprite__star-half"><path d="M510 197.472l-183.37-15.734L255 12.75l-71.629 168.988L0 197.472l139.103 120.539L97.41 497.25 255 402.186l157.59 95.039-41.692-179.239L510 197.472zM255 354.348V117.172l43.605 102.918 111.689 9.588-84.711 73.389 25.398 109.166L255 354.348z" fill="#f64866"/></symbol><symbol viewBox="0 0 510 510" id="svg-sprite__star-o"><path d="M510 197.472l-183.37-15.734L255 12.75l-71.629 168.988L0 197.472l139.103 120.539L97.41 497.25 255 402.186l157.59 95.064-41.692-179.239L510 197.472zM255 354.348l-95.957 57.886 25.398-109.166-84.736-73.389 111.69-9.588L255 117.172l43.605 102.918 111.689 9.588-84.711 73.389 25.398 109.166L255 354.348z" fill="#f64866"/></symbol><symbol viewBox="0 0 24 24" id="svg-sprite__time-period"><path d="M10.5 1a.5.5 0 0 0-.5.5v11a.5.5 0 0 0 .5.5h12a.5.5 0 0 0 .5-.5C23 6.159 17.393 1 10.5 1zm.5 11V2.01c5.928.233 10.708 4.583 10.987 9.99H11zm-7 .5a.5.5 0 0 0-.5-.5h-2a.5.5 0 0 0 0 1h2a.5.5 0 0 0 .5-.5zm12.656 5.45a.5.5 0 0 0-.707.707l1.414 1.414a.498.498 0 0 0 .707 0 .5.5 0 0 0 0-.707l-1.414-1.414zM4.636 5.929a.5.5 0 0 0-.707.707L5.343 8.05a.498.498 0 1 0 .707-.707L4.636 5.929zm.707 12.021l-1.414 1.414a.5.5 0 0 0 .707.707l1.414-1.414a.5.5 0 0 0-.707-.707zM10.5 20a.5.5 0 0 0-.5.5v2a.5.5 0 0 0 1 0v-2a.5.5 0 0 0-.5-.5zm6.863-14.071l-1.414 1.414a.5.5 0 0 0 .708.707l1.414-1.415a.5.5 0 1 0-.708-.706z"/></symbol><symbol viewBox="0 0 24 24" id="svg-sprite__traumatic"><path d="M12.368 13.948l-1.853-.605-.508-1.745a.498.498 0 0 0-.834-.214L6.638 13.92l-.099-.104a3.598 3.598 0 0 0-2.53-1.043 3.4 3.4 0 0 0-2.426.99 3.474 3.474 0 0 0-1.028 2.435 3.388 3.388 0 0 0 1.003 2.442 3.424 3.424 0 0 0 2.47 1.002 3.445 3.445 0 0 0 1.007 2.476 3.487 3.487 0 0 0 2.483 1.026c.927 0 1.794-.357 2.441-1.005a3.468 3.468 0 0 0 1.026-2.438 3.4 3.4 0 0 0-.953-2.391l2.533-2.534a.501.501 0 0 0-.197-.828zM8.929 17a.5.5 0 0 0 0 .708l.179.115.166.142c.464.464.717 1.078.713 1.73a2.474 2.474 0 0 1-.733 1.738c-.928.928-2.575.915-3.511-.021a2.458 2.458 0 0 1-.664-2.231.502.502 0 0 0-.49-.599l-.1.01a2.447 2.447 0 0 1-2.223-.658c-.964-.963-.952-2.484.025-3.463.915-.915 2.605-.883 3.542.053.075.075.237.258.31.355l.101.144a.5.5 0 0 0 .707 0l2.333-2.333.346 1.187a.5.5 0 0 0 .325.335l1.329.435L8.929 17zM23.656 5.472a3.469 3.469 0 0 0-1.615-2.113 3.51 3.51 0 0 0-2.667-.349 3.471 3.471 0 0 0-3.36-2.617c-1.233 0-2.382.66-3.001 1.723-.464.798-.566 1.751-.287 2.683a3.724 3.724 0 0 0 1.667 2.132l.125.07-1.904 3.271a.5.5 0 0 0 .407.751l1.805.087 1.089 1.605a.503.503 0 0 0 .414.219l.018-.001a.502.502 0 0 0 .415-.248l1.902-3.27a3.41 3.41 0 0 0 1.653.43 3.483 3.483 0 0 0 2.993-1.737c.464-.8.588-1.736.346-2.636zm-1.212 2.133c-.661 1.138-2.211 1.569-3.343.909l-.179-.125-.161-.146a.502.502 0 0 0-.681.183l-1.785 3.069-.783-1.154a.504.504 0 0 0-.39-.219l-1.231-.059 1.772-3.045a.499.499 0 0 0-.177-.682l-.171-.062a4.323 4.323 0 0 1-.42-.208 2.71 2.71 0 0 1-1.212-1.555c-.199-.663-.13-1.335.194-1.892.657-1.13 2.233-1.554 3.374-.891a2.467 2.467 0 0 1 1.225 1.993.5.5 0 0 0 .721.419 2.517 2.517 0 0 1 2.341.082c.571.333.981.868 1.152 1.508a2.44 2.44 0 0 1-.246 1.875zM5.5 10h2a.5.5 0 0 0 0-1h-2a.5.5 0 0 0 0 1zm5-3a.5.5 0 0 0 .5-.5v-2a.5.5 0 0 0-1 0v2a.5.5 0 0 0 .5.5zm-2.486.597a.496.496 0 0 0 .699-.11.502.502 0 0 0-.109-.699L6.987 5.61a.501.501 0 0 0-.589.809l1.616 1.178zM20.5 14h-2a.5.5 0 0 0 0 1h2a.5.5 0 0 0 0-1zm-5 3a.5.5 0 0 0-.5.5v2a.5.5 0 0 0 1 0v-2a.5.5 0 0 0-.5-.5zm2.487-.597a.5.5 0 0 0-.59.809l1.616 1.178a.496.496 0 0 0 .699-.11.502.502 0 0 0-.109-.699l-1.616-1.178z"/></symbol><symbol viewBox="0 0 24 24" id="svg-sprite__video"><path d="M0 21.101C0 22.148.869 23 1.938 23h20.125C23.131 23 24 22.148 24 21.101V8H0v13.101zM8 11.5a.5.5 0 0 1 .724-.447l8 4a.5.5 0 0 1 0 .894l-8 4a.505.505 0 0 1-.487-.021A.502.502 0 0 1 8 19.5v-8zM10.293 7l6-6h-2.585L7.707 7zm8 0l5.399-5.398A1.488 1.488 0 0 0 22.5 1h-.792l-6 6h2.585zm-12 0l6-6H9.708L3.707 7zM1.5 1C.673 1 0 1.674 0 2.501v3.293L4.794 1H1.5zm.793 6l6-6H6.208l-6 6zm12 0l6-6h-2.585l-6 6zm5.415 0H24V2.708z"/></symbol><symbol viewBox="0 0 181.72 181.72" id="svg-sprite__weight-effect"><path d="M118.385 52.011c0-13.542-9.779-24.561-21.809-24.561h-45.08c-12.029 0-21.805 11.019-21.805 24.561s9.776 24.561 21.805 24.561h45.081c12.029-.001 21.808-11.019 21.808-24.561zm-82.471 0c0-10.108 6.984-18.325 15.57-18.325h45.081c8.583 0 15.573 8.217 15.573 18.325 0 10.108-6.99 18.325-15.573 18.325H77.14V43.76a3.117 3.117 0 1 0-6.235 0v26.576H51.49c-8.58 0-15.576-8.217-15.576-18.325zm127.653 18.545c-4.768-2.582-10.096-3.974-15.491-4.135v-37.5c0-13.85-11.265-25.108-25.1-25.108H25.108C11.259 3.812 0 15.08 0 28.921v97.862c0 13.853 11.271 25.111 25.108 25.111H87.55c.484 0 .922-.128 1.333-.335 3.891 8.61 10.468 16.087 19.382 20.916a44.766 44.766 0 0 0 21.312 5.432h.012c16.459 0 31.561-8.97 39.396-23.438 5.121-9.45 6.649-20.337 4.36-30.835a34.977 34.977 0 0 0 4.183-6.017c9.123-16.816 2.857-37.934-13.961-47.061zM25.103 145.665c-10.406 0-18.876-8.464-18.876-18.876V28.927c0-10.406 8.47-18.873 18.876-18.873h97.862c10.406 0 18.864 8.467 18.864 18.873v37.856c-10.681 1.613-20.118 8.086-25.343 17.737-1.17 2.128-2.083 4.405-2.765 6.78-10.06 3.812-18.353 11.027-23.48 20.46-5.855 10.796-6.801 22.968-3.596 33.91l-61.542-.005zm146.946-31.019a28.847 28.847 0 0 1-4.378 5.968 3.125 3.125 0 0 0-.768 2.929c2.447 9.48 1.242 19.406-3.404 27.955a38.567 38.567 0 0 1-33.922 20.174 38.51 38.51 0 0 1-18.347-4.677c-18.676-10.138-25.626-33.587-15.494-52.275 4.637-8.543 12.31-14.973 21.589-18.103a3.089 3.089 0 0 0 2.034-2.223c.584-2.454 1.455-4.78 2.618-6.911a28.52 28.52 0 0 1 25.087-14.897 28.46 28.46 0 0 1 13.536 3.443c13.793 7.496 18.933 24.82 11.449 38.617zm-13.287-35.243a24.648 24.648 0 0 0-33.417 9.926c-.128.25-.237.5-.316.743a3.13 3.13 0 0 0 .115 3.13c.604.949 1.62 1.474 2.777 1.449 7.075-.329 13.895 1.229 20.094 4.572 6.113 3.319 11.229 8.281 14.797 14.353.535.907 1.583 1.327 2.618 1.395h.134c.999 0 2.04-.603 2.643-1.407.086-.127.402-.614.476-.742 3.136-5.779 3.823-12.434 1.948-18.755-1.877-6.322-6.096-11.528-11.869-14.664zm6.108 26.147a44.46 44.46 0 0 0-13.896-11.807 43.935 43.935 0 0 0-17.451-5.219c5.456-5.861 14.979-7.593 22.262-3.647 4.312 2.338 7.459 6.235 8.866 10.955.95 3.215 1.022 6.551.219 9.718zm-58.566 30.762l15.15 8.208-1.839 3.386-19.096-10.364c1.602-2.935 3.629-4.933 6.101-6.004 2.473-1.084 6.321-1.62 11.533-1.662 2.533-.03 4.408-.298 5.603-.822 1.193-.518 2.191-1.491 2.959-2.91.815-1.492.943-2.983.39-4.519-.548-1.522-1.645-2.728-3.288-3.629-1.729-.926-3.397-1.084-5.042-.42-1.632.651-3.062 2.027-4.311 4.177l-3.386-1.839c1.619-3.105 3.751-5.061 6.381-5.895 2.637-.84 5.469-.42 8.488 1.206 2.582 1.4 4.274 3.318 5.097 5.754.811 2.411.566 4.823-.749 7.24-1.12 2.052-2.545 3.452-4.323 4.208-1.766.761-4.549 1.145-8.317 1.169-4.08.012-7.088.433-9.024 1.242-.829.385-1.608.853-2.327 1.474zm34.501-12.263l14.444 7.836-1.84 3.387-11.837-6.425-5.34 6.972.158-.012c2.106-.225 4.024.128 5.724 1.047 2.935 1.59 4.816 3.672 5.669 6.236.847 2.551.512 5.206-.98 7.971-1.547 2.85-3.708 4.7-6.479 5.541-2.759.84-5.56.505-8.373-1.018-2.782-1.516-4.646-3.422-5.583-5.735-.932-2.314-.835-4.743.298-7.308l3.642 1.979c-.64 1.656-.664 3.19-.067 4.597.603 1.432 1.76 2.606 3.501 3.551 1.688.913 3.361 1.059 5.066.463 1.693-.598 3.045-1.814 4.043-3.666 1.048-1.937 1.328-3.775.853-5.529-.499-1.741-1.692-3.13-3.58-4.152-1.022-.561-2.155-.853-3.373-.877-1.23-.037-2.29.195-3.209.694l-2.832-1.803 10.095-13.749z" fill="#666"/></symbol><symbol viewBox="0 0 24 24" id="svg-sprite__arrow-right-12"><path d="M19.213 11.23l-13.143-11c-.422-.353-1.052-.298-1.408.126-.353.424-.299 1.054.125 1.41l12.227 10.232-12.227 10.232c-.424.355-.479.986-.125 1.409.197.236.482.358.768.358.227 0 .453-.077.641-.232l13.143-11c.229-.191.359-.472.359-.768s-.132-.576-.36-.767z" fill="#666"/></symbol><symbol viewBox="0 0 24 24" id="svg-sprite__arrow-left-12"><path d="M6.986 11.999l12.227-10.232c.423-.355.479-.985.125-1.409-.355-.424-.986-.479-1.409-.126l-13.144 11c-.227.19-.357.472-.357.768s.131.576.357.768l13.144 11c.187.155.415.232.642.232.285 0 .568-.122.768-.358.354-.423.298-1.054-.125-1.409l-12.228-10.234z" fill="#666"/></symbol><symbol viewBox="0 0 24 24" id="svg-sprite__soccer-court"><path d="M22.5 4h-22c-.276 0-.5.224-.5.5v15c0 .276.224.5.5.5h22c.276 0 .5-.224.5-.5v-15c0-.276-.224-.5-.5-.5zm-11.5 10.45c-1.14-.233-2-1.242-2-2.45s.86-2.217 2-2.45v4.9zm1-4.9c1.14.232 2 1.242 2 2.45s-.86 2.217-2 2.45v-4.9zm-11-1.55h3v8h-3v-8zm0 9h3.5c.276 0 .5-.224.5-.5v-9c0-.276-.224-.5-.5-.5h-3.5v-2h10v3.55c-1.692.246-3 1.691-3 3.45s1.308 3.204 3 3.45v3.55h-10v-2zm11 2v-3.55c1.692-.245 3-1.691 3-3.45s-1.308-3.204-3-3.45v-3.55h10v2h-3.5c-.276 0-.5.224-.5.5v9c0 .276.224.5.5.5h3.5v2h-10zm10-3h-3v-8h3v8z"/></symbol></svg>