<svg width="64" height="76" viewBox="0 0 64 76" fill="none" xmlns="http://www.w3.org/2000/svg">
<path d="M58.5182 45.3636C58.5182 53.2713 55.3552 60.4304 50.2413 65.6126M58.5182 45.3636H54.5381M58.5182 45.3636C58.5182 38.7999 56.339 32.7519 52.6737 27.9222M30.2591 74C22.4556 74 15.3908 70.7948 10.2769 65.6126M30.2591 74C38.0626 74 45.1274 70.7948 50.2413 65.6126M30.2591 74V69.9667M2 45.3636C2 37.4559 5.16301 30.2968 10.2769 25.1147M2 45.3636C2 53.2713 5.16301 60.4304 10.2769 65.6126M2 45.3636H5.98016M30.2591 16.7273V20.7606M30.2591 16.7273C29.167 16.7273 28.0894 16.7901 27.0295 16.9122M30.2591 16.7273C31.3512 16.7273 32.4289 16.7901 33.4887 16.9122M50.2413 25.1147L47.4269 27.9666M50.2413 25.1147C49.5852 24.4498 48.8969 23.8174 48.1791 23.2202M50.2413 25.1147C51.1105 25.9954 51.9232 26.9333 52.6737 27.9222M10.2769 25.1147L13.0913 27.9666M10.2769 25.1147C14.6751 20.6578 20.5163 17.6631 27.0295 16.9122M10.2769 65.6126L13.0913 62.7606M50.2413 65.6126L47.4269 62.7606M36.3146 30.1895C42.2326 32.617 46.4072 38.4963 46.4072 45.3636C46.4072 50.251 44.2928 54.6379 40.9403 57.6364M24.2036 30.1895C18.2857 32.617 14.111 38.4963 14.111 45.3636C14.111 50.251 16.2255 54.6379 19.5779 57.6364M35.9109 63.3636C35.9109 60.2005 33.3805 57.6364 30.2591 57.6364C27.1377 57.6364 24.6073 60.2005 24.6073 63.3636M30.2591 63.3636L29.6641 62.7606M27.0295 16.9122V8.13636M27.0295 8.13636H33.4887M27.0295 8.13636H26.6073C25.5027 8.13636 24.6073 7.24093 24.6073 6.13636V4C24.6073 2.89543 25.5027 2 26.6073 2H34.3146C35.4192 2 36.3146 2.89543 36.3146 4V6.13637C36.3146 7.24094 35.4192 8.13636 34.3146 8.13636H33.4887M33.4887 16.9122V8.13636M33.4887 16.9122C39.0302 17.5511 44.0853 19.8142 48.1791 23.2202M51.8214 19.5292L56.3888 24.1576M51.8214 19.5292L51.2505 18.9507C50.6198 18.3117 50.6198 17.2756 51.2505 16.6365L53.2487 14.6116C53.8793 13.9726 54.9018 13.9726 55.5324 14.6116L61.527 20.6863C62.1577 21.3254 62.1577 22.3614 61.527 23.0005L59.5288 25.0254C58.8982 25.6644 57.8757 25.6644 57.2451 25.0254L56.3888 24.1576M51.8214 19.5292L48.1791 23.2202M56.3888 24.1576L52.6737 27.9222M30.2591 25.1147L27.0295 40.8636L30.2591 45.3636L33.4887 40.8636L30.2591 25.1147Z" stroke="#1E337D" stroke-width="3" stroke-linecap="round" stroke-linejoin="round"/>
</svg>
