<svg version="1" xmlns="http://www.w3.org/2000/svg" width="24" height="24" viewBox="0 0 24 24"><g><path d="M10.5 1c-.276 0-.5.224-.5.5v11c0 .276.224.5.5.5h12c.276 0 .5-.224.5-.5 0-6.341-5.607-11.5-12.5-11.5zm.5 11v-9.99c5.928.233 10.708 4.583 10.987 9.99h-10.987zM4 12.5c0-.276-.224-.5-.5-.5h-2c-.276 0-.5.224-.5.5s.224.5.5.5h2c.276 0 .5-.224.5-.5zM16.656 17.95c-.195-.195-.512-.195-.707 0-.195.195-.195.512 0 .707l1.414 1.414c.098.098.226.146.354.146.128 0 .256-.049.353-.146.195-.195.195-.512 0-.707l-1.414-1.414zM4.636 5.929c-.195-.195-.512-.195-.707 0-.195.195-.195.512 0 .707l1.414 1.414c.097.098.225.146.353.146s.256-.048.354-.146c.195-.195.195-.512 0-.707l-1.414-1.414zM5.343 17.95l-1.414 1.414c-.195.195-.195.512 0 .707.098.098.226.146.353.146.128 0 .256-.049.354-.146l1.414-1.414c.195-.195.195-.512 0-.707-.196-.195-.512-.195-.707 0zM10.5 20c-.276 0-.5.224-.5.5v2c0 .276.224.5.5.5s.5-.224.5-.5v-2c0-.276-.224-.5-.5-.5zM17.363 5.929l-1.414 1.414c-.195.195-.195.512 0 .707.098.098.226.146.354.146.128 0 .256-.049.354-.146l1.414-1.415c.195-.195.195-.512 0-.707-.196-.194-.512-.194-.708.001z"/></g></svg>