<svg version="1" xmlns="http://www.w3.org/2000/svg" width="24" height="24" viewBox="0 0 24 24"><g style="fill:#ffb61c;"><path d="M11.696 1l-.205.002c-3.081.053-5.979 1.298-8.163 3.505-2.198 2.222-3.379 5.133-3.326 8.194.11 6.338 5.075 11.302 11.305 11.302l.202-.001c6.445-.113 11.6-5.362 11.489-11.701-.11-6.337-5.074-11.301-11.302-11.301zm-.205 22.002l-.185.001c-5.678 0-10.204-4.533-10.305-10.32-.049-2.79 1.03-5.444 3.037-7.473 1.999-2.021 4.651-3.16 7.47-3.209l.188-.001c5.677 0 10.201 4.532 10.302 10.318.101 5.788-4.613 10.581-10.507 10.684zM11.5 14.5c.276 0 .5-.224.5-.5v-7c0-.276-.224-.5-.5-.5s-.5.224-.5.5v7c0 .276.224.5.5.5z"/><circle cx="11.5" cy="17.5" r="1"/></g></svg>
