<svg width="76" height="80" viewBox="0 0 76 80" fill="none" xmlns="http://www.w3.org/2000/svg">
<path d="M69.3884 73.0904L59.1174 77.8261L50.5172 64.576L41.917 51.3259C36.5956 53.7794 30.6143 53.0264 26.1434 49.8691C23.942 48.3146 22.1068 46.1773 20.8967 43.5529C17.2291 35.5983 20.6938 26.1815 28.6354 22.5198C36.577 18.8582 45.9881 22.3383 49.6557 30.2929L54.0197 39.7577M69.3884 73.0904L73.8105 61.0715L58.4418 27.7388M69.3884 73.0904L54.0197 39.7577M21.3312 29.3881L25.7566 17.3602C27.0567 14.9439 28.991 12.8484 31.457 11.3517M54.0197 39.7577L58.4418 27.7388M58.4418 27.7388L54.0778 18.274C51.5808 12.8583 46.4216 9.5167 40.8764 9.09078M31.457 11.3517L30.1776 8.57681C29.0791 6.19434 30.12 3.37245 32.5024 2.27396V2.27396C34.8849 1.17546 37.7068 2.21634 38.8053 4.59881L40.3264 7.89796L40.8764 9.09078M31.457 11.3517L33.5012 15.7854C37.6097 13.8911 41.4342 14.6226 43.8366 15.511L40.8764 9.09078M39.2607 45.5647C34.4958 47.7617 28.8491 45.6736 26.6485 40.9009C24.448 36.1281 26.5268 30.478 31.2917 28.281C36.0567 26.0841 41.7033 28.1721 43.9039 32.9449C46.1045 37.7176 44.0257 43.3677 39.2607 45.5647ZM34.1678 8.46994C-18.4909 53.2435 7.24722 92.5005 17.2207 68.6927C23.4542 53.8128 -11.3595 19.309 34.1678 8.46994Z" stroke="#1E337D" stroke-width="3" stroke-linecap="round" stroke-linejoin="round"/>
</svg>
